#!OML:ASF E:/inclinewalkrobotboard/Project1/Captureday1/Session1/subject1.ASF
:FULLY-SPECIFIED
:DEGREES
188
root 0 0 0 2.0170085998346403 -10.783378041739137 0.9744639092066093
lowerback -0.16285557921826244 -1.839193175908987 -2.674465788528251
upperback -0.19167168430861192 -2.406175823766304 1.791662907467324
thorax 0.04260929519970458 -1.216084785671925 3.282749482185634
lowerneck -26.072150994700177 -1.7860922560983237 -7.825832015552955
upperneck 25.752988775821144 0.08813670063003531 2.236398421036431
head 12.947638884863462 -0.5238530516614698 2.281846154882536
rclavicle 2.728892733287925E-15 -1.7823836375183135E-15
rhumerus -33.934266757029725 -2.8946099719552927 -78.1552272486707
rradius 28.76637772718561
rwrist 20.225290026400888
rhand -17.82286812728269 9.055131091989205
rfingers 7.125019999999949
rthumb 8.435282515456578 -20.78130027360216
lclavicle 1.8550989844708793E-15 1.1690845360168567E-15
lhumerus -22.661512540825253 -8.54706526092576 91.22969931808075
lradius 65.02171114408351
lwrist 4.701084266096648
lhand -27.229977583839045 23.59011072182308
lfingers 7.125019999999984
lthumb -0.6649396322203218 53.69981679867232
rfemur -34.287039661338376 3.9575006726651694 17.488134947862587
rtibia 28.174129418478568
rfoot -4.8226652410213315 -12.012036615958614
rtoes -3.8034538976591596
lfemur 20.637770000444537 -4.911342791485795 -29.32021346003264
ltibia 18.649835503387155
lfoot -11.478183225237803 -7.367655392419392
ltoes -12.160850912708355
189
root 0 0 0 2.011910684795531 -10.711528280736156 1.0138550465836353
lowerback -0.020471712433147937 -1.8410250463381326 -2.663635286404302
upperback -0.1810073884738676 -2.4055863766836483 1.891160512593033
thorax -0.02432970690422054 -1.2170814649109105 3.3840377369099253
lowerneck -26.629395586116487 -1.7917129622020838 -7.688016811259193
upperneck 24.2115858907005 0.10040451294525254 2.3038525557872385
head 12.495877735598949 -0.4657591577079576 2.2675830391895735
rclavicle 3.935887156115323E-15 -2.1303344209478906E-15
rhumerus -34.263596462549216 -3.4797042392177855 -77.92432621076156
rradius 28.541019451612893
rwrist 20.539868564398702
rhand -17.683609719693667 8.935432794344784
rfingers 7.125019999999954
rthumb 8.569186646915709 -20.885415439114603
lclavicle 1.5292253713216178E-15 7.260727434139788E-16
lhumerus -22.753325258673176 -8.738819476947704 91.24909903589588
lradius 65.06424156281504
lwrist 4.741170233676151
lhand -27.210595133310804 23.5743130587971
lfingers 7.125019999999983
lthumb -0.6467895428106649 53.68489424785221
rfemur -35.99466944314538 4.2515058098761545 18.65193228448807
rtibia 26.06119892424613
rfoot -4.822032575903046 -11.57631446058883
rtoes -1.0223764849341102
lfemur 19.532919154395078 -3.6985909783349857 -26.11682554049638
ltibia 30.379901443764133
lfoot -3.320974902750871 -12.85796805851579
ltoes -16.240798594702184
190
root 0 0 0 1.8876624452945359 -10.401261340301971 0.9917524451588163
lowerback 0.24176547109806545 -1.727300632012683 -2.6339564105065225
upperback -0.3140610642594335 -2.2433520420705184 2.02958483189743
thorax -0.3279327568630215 -1.1333579291960385 3.5150511384428746
lowerneck -26.721320337171175 -1.7991458333208379 -7.434941223765958
upperneck 22.34019403750302 0.0518881653330433 2.438439769722814
head 11.87654079141765 -0.42991130151442947 2.2544810056016082
rclavicle 3.554374007170203E-15 -1.7331715833930917E-15
rhumerus -34.48430685046085 -4.546766777085503 -77.9486330437553
rradius 28.42413917865254
rwrist 20.82601427590196
rhand -17.46059199919198 8.83734468648999
rfingers 7.125019999999955
rthumb 8.786022013099235 -20.952136289893886
lclavicle -8.515924266992172E-16 9.460394693683626E-16
lhumerus -23.237940528364486 -7.559210661719813 91.60048248908632
lradius 64.16942570194806
lwrist 4.457659813980233
lhand -27.156130972575014 22.815606619725134
lfingers 7.1250199999999895
lthumb -0.5999808455465123 52.91847955601049
rfemur -31.35294502440713 5.590765029900827 27.134171278945217
rtibia 23.377823521470276
rfoot -4.3027847145397455 -9.68011648933421
rtoes 8.768646707787642
lfemur 3.5949473845261997 -1.3991680361776155 -19.12324674940701
ltibia 47.07847037962514
lfoot 9.40276980072433 -15.91505736599566
ltoes -12.453636407821495
191
root 0 0 0 1.8210692461751425 -10.259956042873794 0.9300190451855871
lowerback 0.3291075496412814 -1.6598630604833726 -2.608593831409043
upperback -0.37340349081836544 -2.1491615276274674 2.04061278580046
thorax -0.4516773373525048 -1.0855386624322958 3.5126165978836807
lowerneck -26.211477543263822 -1.7609384854186314 -7.384839314050678
upperneck 22.578021835807245 0.059494037829443736 2.4114279677127013
head 11.89132923018868 -0.4388233931134611 2.245770664331451
rclavicle 2.5824142649759738E-15 -1.3679033239074217E-15
rhumerus -34.3911227273414 -5.059455418484813 -78.18087723499261
rradius 28.51335159378786
rwrist 20.819569997381365
rhand -17.35259729701059 8.84115272169787
rfingers 7.125019999999951
rthumb 8.891377456024788 -20.92392016867294
lclavicle -1.5321260056232181E-15 1.412350392100065E-15
lhumerus -23.55882639037237 -6.083643271619362 92.06993592274804
lradius 63.34954557013096
lwrist 3.862454012679602
lhand -27.368545360313114 22.07302010567499
lfingers 7.125019999999998
lthumb -0.8065503218133472 52.151151983614014
rfemur -22.1315968788849 6.597915501081146 33.33694495888638
rtibia 23.37744098546513
rfoot -6.949121953286024 -8.805652698881813
rtoes 12.397545303609473
lfemur -3.9956123789404696 -0.45525289559568205 -16.71086518088033
ltibia 52.665468176362744
lfoot 10.954376109451305 -13.900060963223874
ltoes -8.67016714157617
192
root 0 0 0 1.7991545716076505 -10.217679692066909 0.9040651970510044
lowerback 0.3394959632036729 -1.630306320173983 -2.601606786041633
upperback -0.39974707075669635 -2.1120956355992098 2.022377059407235
thorax -0.4920785898612574 -1.0651366205561719 3.488783937345283
lowerneck -25.938525414681823 -1.7422889612792283 -7.382751000592848
upperneck 22.89252478379028 0.06002839479899513 2.3905499191091257
head 11.960511252417493 -0.4501479131643289 2.242910443911213
rclavicle 1.8064466638142488E-15 -1.1543058942744988E-15
rhumerus -34.12163435250881 -5.3464250836720915 -78.58376791302418
rradius 28.75934384944745
rwrist 20.668056293627757
rhand -17.293217407015735 8.876552147368825
rfingers 7.125019999999947
rthumb 8.949284932862923 -20.87160896657187
lclavicle -2.581910436181624E-15 1.6357239966706297E-15
lhumerus -23.666221683582577 -5.110702252344212 92.44600279010432
lradius 62.87943676227222
lwrist 3.311666835460194
lhand -27.67997753052097 21.58693925630371
lfingers 7.125020000000006
lthumb -1.1046699880842334 51.639506712955296
rfemur -14.285050336302413 7.825494465354978 36.686912942446966
rtibia 19.953225358097292
rfoot -14.281342095888364 -8.938673052474297
rtoes 12.39461989563744
lfemur -10.752018816816248 0.9423861986123683 -14.032789106241331
ltibia 55.29088509615482
lfoot 7.118529450542889 -10.345745304109489
ltoes -10.33042927793184
